<?xml version="1.0" encoding="UTF-8"?>
<svg width="18px" height="18px" viewBox="0 0 18 18" version="1.1" xmlns="http://www.w3.org/2000/svg" xmlns:xlink="http://www.w3.org/1999/xlink">
    <title>E67A4A77-F6DA-49F8-8CEB-619C747A7EED</title>
    <g id="Page-1" stroke="none" stroke-width="1" fill="none" fill-rule="evenodd">
        <g id="Main" transform="translate(-299.000000, -149.000000)">
            <g id="Group-15" transform="translate(18.000000, 142.000000)">
                <g id="Group-2" transform="translate(260.000000, 0.000000)">
                    <g id="Group-12" transform="translate(21.000000, 7.000000)">
                        <g id="Group-7" transform="translate(0.546399, 0.000000)">
                            <path d="M0.135370167,3.81382993 C0.176685643,1.98202398 1.66847848,0.509111365 3.50362044,0.509111365 L13.9082075,0.509111365 C14.4313192,0.509111365 14.855385,0.93317714 14.855385,1.45628878 L14.855385,3.05561019 L15.1540184,3.05561019 C15.9760509,3.05561019 16.64244,3.72199927 16.64244,4.54403185 L16.64244,16.0898282 C16.64244,16.9118607 15.9760509,17.5782498 15.1540184,17.5782498 L3.24664509,17.5782498 C1.53018045,17.5782498 0.134490715,16.2184211 0.134490715,14.5356295 L0.134490715,3.81382993 L0.135370167,3.81382993 Z" id="Shape" opacity="0.8"></path>
                            <path d="M16.3718179,6.75336502 L3.6389315,6.75336502 C2.00240324,6.75336502 0.675734955,5.42058687 0.675734955,3.7765217 C0.675734955,2.13245654 2.00240324,0.799678385 3.6389315,0.799678385 L13.7428273,0.799678385 C14.2078155,0.799678385 14.5847628,1.17662574 14.5847628,1.64161387 L14.5847628,3.34617721 L14.5847628,3.34617721" id="Path" stroke="#01BF8C" stroke-width="1.26290323"></path>
                            <path d="M16.3884751,13.6299945 C15.6352071,13.6299945 14.5053051,13.6299945 12.9987691,13.6299945 C11.813697,13.6299945 10.8530061,12.781863 10.8530061,11.7356397 C10.8530061,10.6894164 11.813697,9.84128485 12.9987691,9.84128485 C14.5807031,9.84128485 15.7671535,9.84128485 16.5581205,9.84128485" id="Path" stroke="#01BF8C" stroke-width="1.26290323"></path>
                            <path d="M4.51704401,6.77114248 L4.51704401,5.03004818 C4.51704401,4.10007193 5.27093872,3.34617721 6.20091498,3.34617721 L14.6879469,3.34617721 C15.6179232,3.34617721 16.3718179,4.10007193 16.3718179,5.03004818 L16.3718179,15.3730795 C16.3718179,16.3030558 15.6179232,17.0569505 14.6879469,17.0569505 L3.38195615,17.0569505 L3.38195615,17.0569505 C1.88735146,17.0569505 0.675734955,15.8764654 0.675734955,14.4202633 L0.675734955,8.02750298 L0.675734955,3.69846377" id="Path" stroke="#01BF8C" stroke-width="1.26290323"></path>
                        </g>
                    </g>
                </g>
            </g>
        </g>
    </g>
</svg>